<?xml version="1.0" encoding="UTF-8" standalone="no"?>
<!DOCTYPE svg PUBLIC "-//W3C//DTD SVG 1.1//EN"
 "http://www.w3.org/Graphics/SVG/1.1/DTD/svg11.dtd">
<!-- Generated by graphviz version 2.47.0 (20210316.0004)
 -->
<!-- Title: dependencies Pages: 1 -->
<svg width="596pt" height="282pt"
 viewBox="0.00 0.00 596.00 282.00" xmlns="http://www.w3.org/2000/svg" xmlns:xlink="http://www.w3.org/1999/xlink">
<g id="graph0" class="graph" transform="scale(1 1) rotate(0) translate(4 278)">
<title>dependencies</title>
<polygon fill="white" stroke="transparent" points="-4,4 -4,-278 592,-278 592,4 -4,4"/>
<text text-anchor="start" x="273.01" y="-42.4" font-family="Times-12" font-weight="bold" font-size="14.00">Legend</text>
<polygon fill="#ffffb3" stroke="transparent" points="60,-10 60,-30 80,-30 80,-10 60,-10"/>
<text text-anchor="start" x="83.63" y="-15.4" font-family="Times-12" font-size="14.00"> &#160;Declarations</text>
<polygon fill="#8dd3c7" stroke="transparent" points="173,-10 173,-30 193,-30 193,-10 173,-10"/>
<text text-anchor="start" x="196.73" y="-15.4" font-family="Times-12" font-size="14.00"> &#160;Module</text>
<polygon fill="#80b1d3" stroke="transparent" points="259,-10 259,-30 279,-30 279,-10 259,-10"/>
<text text-anchor="start" x="282.78" y="-15.4" font-family="Times-12" font-size="14.00"> &#160;Bootstrap</text>
<polygon fill="#fdb462" stroke="transparent" points="356,-10 356,-30 376,-30 376,-10 356,-10"/>
<text text-anchor="start" x="379.67" y="-15.4" font-family="Times-12" font-size="14.00"> &#160;Providers</text>
<polygon fill="#fb8072" stroke="transparent" points="452,-10 452,-30 472,-30 472,-10 452,-10"/>
<text text-anchor="start" x="475.73" y="-15.4" font-family="Times-12" font-size="14.00"> &#160;Exports</text>
<g id="clust1" class="cluster">
<title>cluster_AlertModule</title>
<polygon fill="none" stroke="black" stroke-dasharray="1,5" points="8,-70 8,-198 282,-198 282,-70 8,-70"/>
</g>
<g id="clust3" class="cluster">
<title>cluster_AlertModule_imports</title>
<polygon fill="none" stroke="black" points="160,-78 160,-130 274,-130 274,-78 160,-78"/>
</g>
<g id="clust6" class="cluster">
<title>cluster_AlertModule_providers</title>
<polygon fill="none" stroke="black" points="16,-78 16,-130 152,-130 152,-78 16,-78"/>
</g>
<g id="clust7" class="cluster">
<title>cluster_AppModule</title>
<polygon fill="none" stroke="black" stroke-dasharray="1,5" points="131,-214 131,-266 231,-266 231,-214 131,-214"/>
</g>
<g id="clust13" class="cluster">
<title>cluster_PrismaModule</title>
<polygon fill="none" stroke="black" stroke-dasharray="1,5" points="290,-138 290,-206 580,-206 580,-138 290,-138"/>
</g>
<g id="clust16" class="cluster">
<title>cluster_PrismaModule_exports</title>
<polygon fill="none" stroke="black" points="456,-146 456,-198 572,-198 572,-146 456,-146"/>
</g>
<g id="clust18" class="cluster">
<title>cluster_PrismaModule_providers</title>
<polygon fill="none" stroke="black" points="298,-146 298,-198 448,-198 448,-146 298,-146"/>
</g>
<!-- PrismaModule -->
<g id="node1" class="node">
<title>PrismaModule</title>
<polygon fill="#8dd3c7" stroke="black" points="266.43,-122 263.43,-126 242.43,-126 239.43,-122 167.57,-122 167.57,-86 266.43,-86 266.43,-122"/>
<text text-anchor="middle" x="217" y="-99.8" font-family="Times,serif" font-size="14.00">PrismaModule</text>
</g>
<!-- AlertModule -->
<g id="node2" class="node">
<title>AlertModule</title>
<polygon fill="#8dd3c7" stroke="black" points="189.31,-190 186.31,-194 165.31,-194 162.31,-190 100.69,-190 100.69,-154 189.31,-154 189.31,-190"/>
<text text-anchor="middle" x="145" y="-167.8" font-family="Times,serif" font-size="14.00">AlertModule</text>
</g>
<!-- PrismaModule&#45;&gt;AlertModule -->
<g id="edge1" class="edge">
<title>PrismaModule&#45;&gt;AlertModule</title>
<path fill="none" stroke="black" d="M178.47,-122.22C178.47,-122.22 178.47,-143.73 178.47,-143.73"/>
<polygon fill="black" stroke="black" points="174.97,-143.73 178.47,-153.73 181.97,-143.73 174.97,-143.73"/>
</g>
<!-- AppModule -->
<g id="node4" class="node">
<title>AppModule</title>
<polygon fill="#8dd3c7" stroke="black" points="222.66,-258 219.66,-262 198.66,-262 195.66,-258 139.34,-258 139.34,-222 222.66,-222 222.66,-258"/>
<text text-anchor="middle" x="181" y="-235.8" font-family="Times,serif" font-size="14.00">AppModule</text>
</g>
<!-- PrismaModule&#45;&gt;AppModule -->
<g id="edge4" class="edge">
<title>PrismaModule&#45;&gt;AppModule</title>
<path fill="none" stroke="black" d="M205.99,-122.06C205.99,-122.06 205.99,-211.87 205.99,-211.87"/>
<polygon fill="black" stroke="black" points="202.49,-211.87 205.99,-221.87 209.49,-211.87 202.49,-211.87"/>
</g>
<!-- PrismaService  -->
<g id="node5" class="node">
<title>PrismaService </title>
<polygon fill="#fb8072" stroke="black" points="564.36,-190 463.64,-190 463.64,-154 564.36,-154 564.36,-190"/>
<text text-anchor="middle" x="514" y="-167.8" font-family="Times,serif" font-size="14.00">PrismaService </text>
</g>
<!-- PrismaModule&#45;&gt;PrismaService  -->
<g id="edge5" class="edge">
<title>PrismaModule&#45;&gt;PrismaService </title>
<path fill="none" stroke="black" stroke-dasharray="5,2" d="M266.38,-104C350.83,-104 514,-104 514,-104 514,-104 514,-143.78 514,-143.78"/>
<polygon fill="black" stroke="black" points="510.5,-143.78 514,-153.78 517.5,-143.78 510.5,-143.78"/>
</g>
<!-- AlertModule&#45;&gt;AppModule -->
<g id="edge3" class="edge">
<title>AlertModule&#45;&gt;AppModule</title>
<path fill="none" stroke="black" d="M164.16,-190.22C164.16,-190.22 164.16,-211.73 164.16,-211.73"/>
<polygon fill="black" stroke="black" points="160.66,-211.73 164.16,-221.73 167.66,-211.73 160.66,-211.73"/>
</g>
<!-- AlertService -->
<g id="node3" class="node">
<title>AlertService</title>
<ellipse fill="#fdb462" stroke="black" cx="84" cy="-104" rx="59.66" ry="18"/>
<text text-anchor="middle" x="84" y="-99.8" font-family="Times,serif" font-size="14.00">AlertService</text>
</g>
<!-- AlertService&#45;&gt;AlertModule -->
<g id="edge2" class="edge">
<title>AlertService&#45;&gt;AlertModule</title>
<path fill="none" stroke="black" d="M122.34,-118.09C122.34,-118.09 122.34,-143.79 122.34,-143.79"/>
<polygon fill="black" stroke="black" points="118.84,-143.79 122.34,-153.79 125.84,-143.79 118.84,-143.79"/>
</g>
<!-- PrismaService -->
<g id="node6" class="node">
<title>PrismaService</title>
<ellipse fill="#fdb462" stroke="black" cx="373" cy="-172" rx="66.63" ry="18"/>
<text text-anchor="middle" x="373" y="-167.8" font-family="Times,serif" font-size="14.00">PrismaService</text>
</g>
<!-- PrismaService&#45;&gt;PrismaModule -->
<g id="edge6" class="edge">
<title>PrismaService&#45;&gt;PrismaModule</title>
<path fill="none" stroke="black" d="M306.13,-172C274.91,-172 244.52,-172 244.52,-172 244.52,-172 244.52,-132.22 244.52,-132.22"/>
<polygon fill="black" stroke="black" points="248.02,-132.22 244.52,-122.22 241.02,-132.22 248.02,-132.22"/>
</g>
</g>
</svg>
